<svg width="161" height="54" viewBox="0 0 161 54" fill="none" xmlns="http://www.w3.org/2000/svg">
<g clip-path="url(#clip0_4_178)">
<g clip-path="url(#clip1_4_178)">
<path d="M39.574 28.7456L39.529 28.6721C38.9664 27.7974 37.9898 27.2784 37.0071 26.9348C34.828 26.145 32.5814 25.5554 30.2952 25.1736C28.4484 24.8735 25.9101 24.701 24.6079 23.1588C29.2037 22.3009 33.6997 20.9754 38.0258 19.2027C38.8284 18.8742 39.688 18.4706 40.0676 17.6905C40.9977 15.7777 40.3556 12.2462 40.3766 10.1804C40.4036 7.32104 40.4311 4.46164 40.4591 1.60223C40.4591 1.29169 40.4591 0.96164 40.2911 0.702103C39.9911 0.243038 39.3445 0.213033 38.7984 0.232536L29.4416 0.570083C29.1415 0.580585 28.8325 0.598588 28.6044 0.781614C28.2789 1.04265 28.2579 1.51972 28.2639 1.93528C28.3199 6.08487 28.3759 10.2355 28.4319 14.387C28.4484 15.5647 28.4529 16.7874 27.9309 17.8465C26.8357 20.0593 23.3447 21.357 21.1499 22.1341C19.3226 22.7822 17.3844 23.7409 17.3784 21.12L17.3333 1.26918C17.3333 0.981142 17.3213 0.669096 17.1278 0.451565C16.9043 0.20553 16.5277 0.19353 16.1977 0.199531C12.8972 0.255539 9.59325 0.312549 6.28578 0.370557C5.92573 0.370557 5.52517 0.39906 5.27164 0.655597C5.0181 0.912133 5.0016 1.32319 5.0046 1.69074L5.30464 41.4104C5.32114 43.5587 5.32865 45.761 4.58754 47.7803C3.84644 49.7996 2.1872 51.6223 0.0568978 51.9224C-0.154632 52.1099 0.245924 52.3724 0.527965 52.3724H6.24077C8.82414 52.3724 11.514 52.3424 13.8259 51.1903C15.2 50.5047 16.4122 49.39 16.9358 47.9408C17.3093 46.9102 17.3138 45.788 17.3138 44.6913C17.3138 38.9995 17.3514 33.3092 17.3904 27.6189C17.3904 26.9003 16.9868 24.4685 17.5824 23.9419C18.205 23.3913 19.7622 24.3079 20.3593 24.5735C22.6306 25.5816 25.6175 26.7623 27.4313 28.5115C29.8541 30.8249 29.4041 35.477 29.2945 38.5255C29.1625 42.1635 28.5894 46.064 26.4051 49.0885C25.4555 50.4011 24.1248 51.2593 22.5571 51.9539C22.5856 52.0889 22.6126 52.2254 22.6396 52.3619C24.2178 52.6455 26.1771 52.3619 27.7943 52.3619H33.1186C35.2114 52.3619 36.9291 50.8077 38.2673 49.369C39.5425 47.9978 39.9025 46.6386 39.9536 44.7724C40.0346 41.8719 40.1151 38.9715 40.1951 36.0711C40.2596 33.7248 40.8612 30.8744 39.574 28.7456ZM80.0707 0.526576C79.6672 0.27604 79.1631 0.27754 78.6891 0.286541L69.9593 0.460566C67.0774 0.519075 68.3601 3.87205 68.3871 5.73982C68.4321 8.78225 68.4766 11.8242 68.5206 14.8656C68.5401 16.2413 68.5371 17.7025 67.808 18.8697C66.8284 20.4359 64.8076 21.0135 62.9593 21.033C61.3421 21.051 59.5958 20.6684 58.5367 19.4458C57.383 18.1136 57.347 16.1768 57.3695 14.4155C57.4215 10.347 57.4745 6.27939 57.5286 2.21282C57.5376 1.52272 57.473 0.6976 56.873 0.357051C56.5729 0.184527 56.1994 0.187531 55.8498 0.196532C52.8644 0.268542 48.5393 -0.45306 45.7159 0.487574L45.4698 0.570083C45.4173 0.859625 45.2763 1.47771 45.3888 1.87977C45.4713 2.17981 45.5884 3.01093 45.4698 3.43399C45.2793 4.11659 45.3888 5.23424 45.3888 6.05336V30.5203C45.6274 31.3755 45.4698 33.1547 45.4698 34.2019C45.4698 38.962 47.0751 46.4916 43.0125 50.0246C42.4634 50.5032 41.1102 51.7138 40.3961 51.7138V51.7948L40.1516 51.9599C40.1021 52.1219 40.1621 52.0289 40.0691 52.1234C40.0781 52.5435 40.1756 52.5375 40.3151 52.7775C40.6827 53.4106 48.2422 52.662 49.2534 52.6425C52.1833 52.6425 54.1921 50.9457 55.8798 48.7269C57.8796 46.097 57.4295 43.5167 57.4265 40.3827C57.4265 37.6403 57.4235 34.8984 57.4175 32.1571C57.4175 29.0066 57.347 26.0062 61.2026 25.4961C62.7944 25.2911 64.4114 25.5577 65.8532 26.2627C66.7669 26.7128 67.6175 27.3579 68.1036 28.2505C69.2662 30.3703 68.7246 32.9567 68.6376 35.2535C68.5311 38.0094 68.6301 40.7728 68.6301 43.5302C68.6301 47.0722 67.2154 50.1431 63.6434 51.4978C63.4049 51.6058 63.3689 51.6883 62.9893 51.9104C62.0622 52.4549 63.6704 52.2014 69.0742 52.4774C71.305 52.59 73.6153 52.6125 75.7051 51.6853C78.9111 50.2631 80.4113 46.8066 80.4113 43.4492V12.4353C80.4383 9.8449 80.4658 7.25353 80.4938 4.66116C80.5013 3.81954 80.9439 1.33069 80.1938 0.610588C80.156 0.578062 80.1148 0.549881 80.0707 0.526576ZM110.279 5.97085L110.198 5.15323H110.116V4.82468H110.033L109.952 4.2531H109.869C109.82 4.2531 109.169 1.35169 109.119 1.14466C109.05 0.870124 108.962 0.568585 108.722 0.417063C108.532 0.321987 108.32 0.281966 108.108 0.301544C105.478 0.309045 102.848 0.324046 100.219 0.324046C99.3185 0.324046 98.0823 0.210034 97.4357 0.487574C97.3892 0.610591 97.4042 0.652597 97.3547 0.816121H97.2722C97.2452 0.95564 97.3487 0.95414 97.3547 0.979643V1.3877H97.4357V1.71625H97.5137C97.7703 1.71625 99.0139 7.70659 99.143 8.27517C99.311 8.99378 100.598 11.7692 99.245 11.9717C98.9299 12.0197 98.6134 11.9132 98.2953 11.9057C97.6637 11.8922 97.0952 12.2627 96.6061 12.6708C93.3926 15.3712 91.3239 20.3759 89.6376 24.1324C87.6633 28.5295 86.2216 33.2732 86.2216 38.1294H86.1391V39.6026C85.2945 42.588 86.9867 45.71 86.9567 48.6414C86.9567 49.3255 85.8781 51.6688 86.1541 52.1039C86.5052 52.6575 87.9634 52.3679 88.5125 52.3679C89.9527 52.3679 91.3794 52.2719 92.8226 52.3199C94.3513 52.3709 95.9205 52.4444 97.3877 51.9284C99.353 51.2368 100.609 49.5835 102.254 48.4104C103.965 47.1922 105.664 45.959 107.384 44.7559C108.467 43.9832 108.857 46.151 108.642 46.8846C108.03 48.9639 106.08 51.1438 104.061 51.7948H103.324C103.324 51.7948 103.324 51.8504 103.161 51.8774V52.2869C104.061 52.4489 105.312 52.3679 106.351 52.3679C106.937 52.3679 107.702 52.4129 108.152 52.2869C111.047 52.2869 114.513 52.9125 117.029 51.1618C118.31 50.2706 119.279 48.9939 120.017 47.6167C120.239 47.2506 120.381 46.8416 120.434 46.4166C120.438 46.0654 120.387 45.7157 120.284 45.3799C116.979 32.2516 114.466 18.8577 110.279 5.97085ZM107.115 40.2327C106.989 40.5223 106.79 40.7748 106.539 40.9663C104.799 42.5265 102.772 43.5827 100.874 44.9164C99.317 46.0115 98.3493 47.5342 97.1837 45.494C96.9927 44.8399 96.8016 44.1853 96.6106 43.5302C95.64 40.2042 96.8596 35.099 97.7523 31.86C98.2852 29.9261 99 28.0469 99.8871 26.2477C100.24 25.5336 101.44 22.7147 102.274 22.6817C102.496 22.6727 102.692 22.8617 102.839 23.3418C104.445 28.5821 105.649 33.8223 107.04 39.1045C107.147 39.4751 107.243 39.8757 107.115 40.2327ZM160.766 1.79726V1.47021H160.683V0.897129H160.602V0.733606C160.581 0.699101 160.487 0.660096 160.437 0.570083C159.902 0.355553 159 0.406561 158.229 0.406561H153.973C151.509 0.406561 149.225 0.130523 146.994 1.3457C145.135 2.35955 143.411 3.60241 141.862 5.04522C140.705 6.12087 139.644 8.10415 138.426 8.91727V9.08079L138.263 9.1618V9.32532H138.18L138.099 9.57136L137.77 9.65387C137.738 9.58054 137.68 9.52176 137.607 9.48885C137.607 6.80347 137.615 4.11758 137.631 1.4312C137.631 1.13866 137.622 0.81162 137.418 0.60009C137.214 0.38856 136.857 0.367554 136.549 0.372054L126.865 0.486072C126.54 0.486072 126.178 0.508574 125.946 0.738107C125.713 0.967639 125.692 1.35319 125.694 1.69074L125.946 42.1725C125.962 44.8159 125.824 47.8163 123.821 49.54C122.735 50.4747 121.13 51.0087 120.694 52.3754C123.637 52.2824 126.598 52.689 129.519 52.3154C132.44 51.9419 135.469 50.5962 136.819 47.9843C137.761 46.1705 137.772 44.0342 137.76 41.991C137.76 35.8836 137.691 29.7762 137.625 23.6689C137.602 21.4936 137.224 19.2867 137.836 17.1489C138.392 15.2137 139.937 13.6189 141.165 12.0902C142.792 10.0769 144.757 8.18966 147.115 7.07351C149.343 6.02336 148.815 7.68559 148.815 9.59836C148.815 17.959 148.651 26.3272 148.651 34.6924V43.2856C148.651 45.5795 148.782 47.1637 147.132 48.9655C146.328 49.8446 143.629 51.1017 143.462 52.0799C144.391 52.3184 145.399 52.2044 146.359 52.2044H151.598C154.703 52.2044 156.744 51.7063 158.974 49.3375C159.455 48.8583 159.86 48.3083 160.175 47.7068C160.688 46.9372 160.581 45.8795 160.562 45.0064C160.538 43.9412 160.53 42.8746 160.526 41.8079C160.514 39.6746 160.53 37.5418 160.574 35.4095C160.769 25.7587 160.674 16.1093 160.674 6.45542V1.79726H160.766Z" fill="white"/>
</g>
</g>
<defs>
<clipPath id="clip0_4_178">
<rect width="160.77" height="53.0325" fill="white"/>
</clipPath>
<clipPath id="clip1_4_178">
<rect width="160.767" height="53.0325" fill="white" transform="translate(0.00134277)"/>
</clipPath>
</defs>
</svg>
